<svg width="37" height="35" viewBox="0 0 37 35" fill="none" xmlns="http://www.w3.org/2000/svg">
<path d="M27.2081 22.0088H24.4182V24.8268H27.2081V22.0088Z" fill="#3E2AA7"/>
<path d="M28.2649 2.50805V0H25.4469V2.50805H11.5962V0H8.77818V2.50805H0V35H36.874V2.50805H28.2649ZM34.056 32.182H2.81804V14.6679H34.056V32.182ZM2.81804 11.8498V5.32609H8.77818V7.83414H11.5962V5.32609H25.4469V7.83414H28.2649V5.32609H34.056V11.8498H2.81804Z" fill="#3E2AA7"/>
<path d="M17.6268 16.6826H14.8369V19.5007H17.6268V16.6826Z" fill="#3E2AA7"/>
<path d="M12.8643 22.0088H10.0745V24.8268H12.8643V22.0088Z" fill="#3E2AA7"/>
<path d="M17.6268 22.0088H14.8369V24.8268H17.6268V22.0088Z" fill="#3E2AA7"/>
<path d="M8.08771 22.0088H5.29785V24.8268H8.08771V22.0088Z" fill="#3E2AA7"/>
<path d="M12.8643 27.3489H10.0745V30.1669H12.8643V27.3489Z" fill="#3E2AA7"/>
<path d="M17.6268 27.3489H14.8369V30.1669H17.6268V27.3489Z" fill="#3E2AA7"/>
<path d="M8.08771 27.3489H5.29785V30.1669H8.08771V27.3489Z" fill="#3E2AA7"/>
<path d="M27.2081 16.6826H24.4182V19.5007H27.2081V16.6826Z" fill="#3E2AA7"/>
<path d="M31.9705 16.6826H29.1807V19.5007H31.9705V16.6826Z" fill="#3E2AA7"/>
<path d="M22.4174 16.6826H19.6416V19.5007H22.4174V16.6826Z" fill="#3E2AA7"/>
<path d="M31.9705 22.0088H29.1807V24.8268H31.9705V22.0088Z" fill="#3E2AA7"/>
<path d="M22.4174 22.0088H19.6416V24.8268H22.4174V22.0088Z" fill="#3E2AA7"/>
<path d="M22.4174 27.3489H19.6416V30.1669H22.4174V27.3489Z" fill="#3E2AA7"/>
</svg>
